<svg width="30" height="30" viewBox="0 0 30 30" fill="none" xmlns="http://www.w3.org/2000/svg">
<g clip-path="url(#clip0_144_183)">
<path d="M16.3075 11.735C16.0261 11.7899 15.75 11.8693 15.4825 11.9725C14.4712 12.3625 13.6737 13.2112 13.4 14.1912C13.3084 14.5204 13.2771 14.8634 13.3075 15.2038C13.335 15.5374 13.4347 15.8611 13.5996 16.1524C13.7645 16.4438 13.9907 16.6959 14.2625 16.8912C14.6482 17.1623 15.1228 17.2763 15.5895 17.2098C16.0563 17.1434 16.4802 16.9017 16.775 16.5338C17.2825 15.87 17.2188 15.055 17.075 14.4887C16.9525 14.005 16.8 13.4688 16.6437 12.9275C16.5286 12.5309 16.4165 12.1334 16.3075 11.735ZM15.2825 24.3225C10.3025 24.3225 6.2525 20.2725 6.2525 15.2937C6.2525 14.0687 6.535 11.5188 8.6075 9.26625C9.51445 8.27597 10.6318 7.50157 11.8775 7C11.9983 6.95182 12.1274 6.92791 12.2575 6.92963C12.3876 6.93136 12.516 6.95868 12.6355 7.01004C12.755 7.0614 12.8632 7.1358 12.9539 7.22898C13.0447 7.32217 13.1162 7.43231 13.1644 7.55312C13.2126 7.67394 13.2365 7.80306 13.2347 7.93312C13.233 8.06318 13.2057 8.19162 13.1543 8.31112C13.103 8.43062 13.0286 8.53883 12.9354 8.62957C12.8422 8.72032 12.7321 8.79182 12.6112 8.84C11.1306 9.43878 9.89832 10.5243 9.1175 11.9175C8.53961 12.9486 8.23537 14.1105 8.23375 15.2925C8.23606 17.1609 8.97931 18.9521 10.3005 20.2733C11.6216 21.5944 13.4128 22.3377 15.2812 22.34C17.5863 22.34 19.815 21.1488 20.9587 19.305C22.2612 17.205 21.9237 14.3913 20.175 12.7575C19.6671 12.2883 19.0495 11.9543 18.3787 11.7863C18.5938 12.5225 18.7962 13.2613 18.9963 14.0013C19.3512 15.4012 19.1213 16.7275 18.3475 17.7375C17.86 18.375 17.1525 18.8475 16.3575 19.0675C15.8129 19.222 15.2407 19.2528 14.6827 19.1576C14.1247 19.0624 13.5951 18.8437 13.1325 18.5175C12.6226 18.1555 12.1975 17.687 11.8866 17.1444C11.5758 16.6017 11.3867 15.998 11.3325 15.375C11.2825 14.7913 11.335 14.2125 11.4925 13.655C11.93 12.085 13.1875 10.7312 14.77 10.1225C15.1044 9.99334 15.4483 9.89052 15.7987 9.815L15.6313 9.18375C15.1687 7.47 15.9438 5.96 17.565 5.425C17.9775 5.28861 18.4147 5.24382 18.8462 5.29375C19.8363 5.40625 20.6912 6.03375 20.9825 6.5725C21.305 7.20625 20.8625 8.01375 20.1 8.01375C19.8493 8.01413 19.6079 7.91891 19.425 7.7475C19.315 7.6475 19.2213 7.53 19.1012 7.43875C18.9906 7.35219 18.8635 7.28913 18.7277 7.25345C18.5918 7.21777 18.4501 7.21022 18.3113 7.23125C18.1287 7.26224 17.9581 7.3429 17.8183 7.46439C17.6785 7.58588 17.5749 7.74351 17.5188 7.92C17.4487 8.15875 17.48 8.4275 17.5438 8.66375C17.6313 8.98375 17.7425 9.41 17.815 9.68875C19.2025 9.81125 20.5175 10.3637 21.5275 11.3088C23.995 13.6137 24.465 17.4163 22.6425 20.35C21.1462 22.7625 18.2563 24.3213 15.2812 24.3213L15.2825 24.3225ZM0 15C0 23.2838 6.71625 30 15 30C23.2838 30 30 23.2838 30 15C30 6.71625 23.2838 0 15 0C6.71625 0 0 6.71625 0 15Z" fill="white"/>
</g>
<defs>
<clipPath id="clip0_144_183">
<rect width="30" height="30" fill="white"/>
</clipPath>
</defs>
</svg>
